<svg xmlns="http://www.w3.org/2000/svg" viewBox="0 0 512 512">
  <defs>
    <linearGradient id="grad" x1="0%" y1="0%" x2="100%" y2="100%">
      <stop offset="0%" style="stop-color:#fb923c;stop-opacity:1" />
      <stop offset="100%" style="stop-color:#f97316;stop-opacity:1" />
    </linearGradient>
  </defs>
  <circle cx="256" cy="256" r="240" fill="#080b12" stroke="url(#grad)" stroke-width="20" />
  <path d="M256 120c-40 0-72 32-72 72 0 40 32 72 72 72s72-32 72-72c0-40-32-72-72-72z" fill="url(#grad)" opacity="0.2" />
  <path d="M256 392c60 0 100-40 100-80 0-50-40-70-60-110-15-30-5-60 10-85-40 35-70 80-70 135 0 20 5 40 15 55-20-10-35-30-45-55-10 40 0 80 50 140z" fill="url(#grad)" />
</svg>